# xmcd CD database file
#
# Track frame offsets:
#	182
#	18512
#	37765
#	54482
#	72550
#	92680
#	114235
#	132557
#	155712
#	186950
#	227492
#
# Disc length: 3430 seconds
#
# Revision: 3
# Processed by: cddbd v1.5.2PL0 Copyright (c) Steve Scherf et al.
# Submitted via: CDex 1.77
#
DISCID=8f0d640b
DTITLE=Albert King - A Truckload of Lovin' [CD2)
DYEAR=1999
DGENRE=Blues
TTITLE0=Love Shock
TTITLE1=You Upset Me Baby
TTITLE2=Chump Change
TTITLE3=Love Mechanic
TTITLE4=Call My Job
TTITLE5=Good Time Chrlie
TTITLE6=Don't Burn Down The Bridge
TTITLE7=That's What The Blues Is All About
TTITLE8=Kansans City
TTITLE9=As The Years Go Passing By
TTITLE10=I'll Play The Blues For You
EXTD=YEAR: 1999
EXTT0=
EXTT1=
EXTT2=
EXTT3=
EXTT4=
EXTT5=
EXTT6=
EXTT7=
EXTT8=
EXTT9=
EXTT10=
PLAYORDER=
